<?xml version="1.0" encoding="UTF-8"?>
<svg id="Layer_1" xmlns="http://www.w3.org/2000/svg" version="1.1" xmlns:xlink="http://www.w3.org/1999/xlink" viewBox="0 0 32 32">
  <!-- Generator: Adobe Illustrator 29.7.1, SVG Export Plug-In . SVG Version: 2.1.1 Build 8)  -->
  <defs>
    <style>
      .st0 {
        fill: url(#linear-gradient1);
      }

      .st1 {
        fill: url(#linear-gradient);
      }
    </style>
    <linearGradient id="linear-gradient" x1="23.3" y1="6.8" x2="31.3" y2="6.8" gradientUnits="userSpaceOnUse">
      <stop offset="0" stop-color="#5e17eb"/>
      <stop offset="1" stop-color="#fff"/>
    </linearGradient>
    <linearGradient id="linear-gradient1" x1=".7" y1="18.1" x2="30.4" y2="18.1" xlink:href="#linear-gradient"/>
  </defs>
  <g id="Big_AI">
    <path class="st1" d="M27.3,2.8h0c-2.2,0-4,1.8-4,4h0c0,2.2,1.8,4,4,4h0c2.2,0,4-1.8,4-4h0c0-2.2-1.8-4-4-4h0Z"/>
    <path class="st0" d="M24.3,28.9L15.8,6.9h-6.4L.7,29.2h6.8l1.2-3.1h7.6l1.2,3.1h12.8V12.4h-6.1v16.5ZM10.1,21.4l2.5-6.9,2.5,6.9h-5Z"/>
  </g>
</svg>