<?xml version="1.0" encoding="UTF-8"?>
<svg id="Layer_2" data-name="Layer 2" xmlns="http://www.w3.org/2000/svg" xmlns:xlink="http://www.w3.org/1999/xlink" viewBox="0 0 5032.48 1934.38">
  <defs>
    <style>
      .cls-1 {
        fill: url(#linear-gradient-2);
      }

      .cls-2 {
        fill: #fff;
      }

      .cls-3 {
        fill: url(#linear-gradient-4);
      }

      .cls-4 {
        fill: url(#linear-gradient-3);
      }

      .cls-5 {
        fill: url(#linear-gradient);
      }
    </style>
    <linearGradient id="linear-gradient" x1="504.28" y1="1042.07" x2="1567.65" y2="1042.07" gradientUnits="userSpaceOnUse">
      <stop offset="0" stop-color="#5e17eb"/>
      <stop offset="1" stop-color="#fff"/>
    </linearGradient>
    <linearGradient id="linear-gradient-2" x1="0" x2="1063.37" xlink:href="#linear-gradient"/>
    <linearGradient id="linear-gradient-3" x1="2545.48" y1="270.32" x2="3086.13" y2="270.32" xlink:href="#linear-gradient"/>
    <linearGradient id="linear-gradient-4" x1="1012.7" y1="1038.97" x2="3025.29" y2="1038.97" xlink:href="#linear-gradient"/>
  </defs>
  <g id="Layer_1-2" data-name="Layer 1">
    <g>
      <path class="cls-5" d="M1311.7,757.69l-185.33,516.43h92.26l11.37-29.27h-62.05l143.77-400.65,35.62,98.95,16.16-41.56-51.8-143.91ZM1311.7,757.69l-185.33,516.43h92.26l11.37-29.27h-62.05l143.77-400.65,35.62,98.95,16.16-41.56-51.8-143.91ZM1513.17,317.3l38.77,99.78,15.71-40.41-34.44-88.62h-442.45L504.28,1796.09h483.76l80.46-209.41h28.58l11.37-29.25h-60.05l-80.46,209.41h-420.91L1110.78,317.3h402.39ZM1230.01,1244.85h-62.05l143.77-400.65,35.62,98.95,16.16-41.56-51.8-143.91-185.33,516.43h92.26l11.37-29.27ZM1311.7,757.69l-185.33,516.43h92.26l11.37-29.27h-62.05l143.77-400.65,35.62,98.95,16.16-41.56-51.8-143.91ZM1311.7,757.69l-185.33,516.43h92.26l11.37-29.27h-62.05l143.77-400.65,35.62,98.95,16.16-41.56-51.8-143.91ZM1311.7,757.69l-185.33,516.43h92.26l11.37-29.27h-62.05l143.77-400.65,35.62,98.95,16.16-41.56-51.8-143.91Z"/>
      <path class="cls-1" d="M807.43,757.69l-185.33,516.43h92.26l11.37-29.27h-62.05l143.77-400.65,35.62,98.95,16.16-41.56-51.8-143.91ZM807.43,757.69l-185.33,516.43h92.26l11.37-29.27h-62.05l143.77-400.65,35.62,98.95,16.16-41.56-51.8-143.91ZM1008.89,317.3l38.77,99.78,15.71-40.41-34.44-88.62h-442.45L0,1796.09h483.76l80.46-209.41h28.58l11.37-29.25h-60.05l-80.46,209.41H42.76L606.5,317.3h402.39ZM725.74,1244.85h-62.05l143.77-400.65,35.62,98.95,16.16-41.56-51.8-143.91-185.33,516.43h92.26l11.37-29.27ZM807.43,757.69l-185.33,516.43h92.26l11.37-29.27h-62.05l143.77-400.65,35.62,98.95,16.16-41.56-51.8-143.91ZM807.43,757.69l-185.33,516.43h92.26l11.37-29.27h-62.05l143.77-400.65,35.62,98.95,16.16-41.56-51.8-143.91ZM807.43,757.69l-185.33,516.43h92.26l11.37-29.27h-62.05l143.77-400.65,35.62,98.95,16.16-41.56-51.8-143.91Z"/>
      <g id="Big_AI" data-name="Big AI">
        <path class="cls-4" d="M2815.81,0h0c-149.3,0-270.32,121.03-270.32,270.32h0c0,149.3,121.03,270.33,270.32,270.33h0c149.3,0,270.32-121.03,270.32-270.32h0c0-149.3-121.03-270.33-270.32-270.33h0Z"/>
        <path class="cls-3" d="M2610.68,1772.51L2031.95,283.16h-431.89l-587.37,1511.61h462.12l82.06-213.78h516.1l82.06,213.78h870.24V652.42h-414.61v1120.08ZM1647.57,1261.39l168.44-468.6,168.43,468.6h-336.88Z"/>
      </g>
    </g>
    <g>
      <path class="cls-2" d="M3134.08,1166.38l188.3-490h23.1l188.3,490h-18.2l-135.1-352.8c-1.4-3.26-3.85-9.45-7.35-18.55-3.5-9.1-7.7-20.18-12.6-33.25-4.9-13.06-10.15-26.71-15.75-40.95-5.6-14.23-10.97-27.88-16.1-40.95l7.7.7c-2.8,8.4-6.65,19.14-11.55,32.2-4.9,13.07-10.04,26.49-15.4,40.25-5.37,13.77-10.15,26.25-14.35,37.45-4.2,11.2-7.24,19.14-9.1,23.8l-133.7,352.1h-18.2ZM3204.08,1005.38l5.6-16.1h249.9l5.6,16.1h-261.1Z"/>
      <path class="cls-2" d="M3612.18,1166.38v-518h15.4v518h-15.4Z"/>
      <path class="cls-2" d="M3892.88,1173.38c-35.47,0-66.74-8.16-93.8-24.5-27.07-16.33-48.19-38.96-63.35-67.9-15.17-28.93-22.75-61.83-22.75-98.7,0-27.53,4.2-52.73,12.6-75.6,8.4-22.86,20.18-42.58,35.35-59.15,15.16-16.56,33.25-29.4,54.25-38.5,21-9.1,44.1-13.65,69.3-13.65,23.33,0,44.8,3.85,64.4,11.55,19.6,7.7,36.51,18.9,50.75,33.6,14.23,14.7,25.08,32.32,32.55,52.85,7.46,20.54,10.73,43.64,9.8,69.3l-.7,18.2h-319.9v-15.4h312.2l-8.4,11.9,1.4-17.5c0-29.86-6.3-56-18.9-78.4-12.6-22.4-29.52-39.78-50.75-52.15-21.24-12.36-44.69-18.55-70.35-18.55-31.74,0-59.39,7.35-82.95,22.05-23.57,14.7-41.89,35-54.95,60.9-13.07,25.9-19.84,55.42-20.3,88.55.46,34.07,7.7,64.4,21.7,91,14,26.6,33.25,47.37,57.75,62.3,24.5,14.94,52.85,22.4,85.05,22.4,24.26,0,46.66-4.43,67.2-13.3,20.53-8.86,38.96-21,55.3-36.4l8.4,12.6c-11.67,10.74-24.15,19.95-37.45,27.65-13.3,7.7-27.77,13.77-43.4,18.2-15.64,4.43-32.32,6.65-50.05,6.65Z"/>
      <path class="cls-2" d="M4280.68,1173.38c-36.4,0-68.6-8.16-96.6-24.5-28-16.33-49.94-38.96-65.8-67.9-15.87-28.93-23.8-61.83-23.8-98.7s7.93-68.71,23.8-96.95c15.86-28.23,37.8-50.28,65.8-66.15,28-15.86,60.2-23.8,96.6-23.8,29.4,0,56,5.49,79.8,16.45,23.8,10.97,43.86,25.79,60.2,44.45l-11.2,11.9c-10.27-12.13-22.05-22.4-35.35-30.8-13.3-8.4-27.77-14.93-43.4-19.6-15.64-4.66-32.32-7-50.05-7-33.14,0-62.42,7.35-87.85,22.05-25.44,14.7-45.5,34.89-60.2,60.55-14.7,25.67-22.29,55.3-22.75,88.9.46,34.07,8.05,64.4,22.75,91,14.7,26.6,34.76,47.37,60.2,62.3,25.43,14.94,54.71,22.4,87.85,22.4,17.26,0,33.6-2.21,49-6.65,15.4-4.43,29.75-10.96,43.05-19.6,13.3-8.63,25.08-18.78,35.35-30.45l11.2,11.2c-16.8,18.67-36.87,33.49-60.2,44.45-23.34,10.96-49.47,16.45-78.4,16.45Z"/>
      <path class="cls-2" d="M3134.08,1766.38l188.3-490h23.1l188.3,490h-18.2l-135.1-352.8c-1.4-3.26-3.85-9.45-7.35-18.55-3.5-9.1-7.7-20.18-12.6-33.25-4.9-13.06-10.15-26.71-15.75-40.95-5.6-14.23-10.97-27.88-16.1-40.95l7.7.7c-2.8,8.4-6.65,19.14-11.55,32.2-4.9,13.07-10.04,26.49-15.4,40.25-5.37,13.77-10.15,26.25-14.35,37.45-4.2,11.2-7.24,19.14-9.1,23.8l-133.7,352.1h-18.2ZM3204.08,1605.38l5.6-16.1h249.9l5.6,16.1h-261.1Z"/>
      <path class="cls-2" d="M3721.38,1773.38c-30.8,0-58.8-5.84-84-17.5-25.2-11.66-44.57-27.06-58.1-46.2l11.9-10.5c13.06,17.27,30.8,31.39,53.2,42.35,22.4,10.97,48.53,16.45,78.4,16.45,19.13,0,35.46-2.33,49-7,13.53-4.66,24.5-10.96,32.9-18.9,8.4-7.93,14.7-16.91,18.9-26.95,4.2-10.03,6.3-20.65,6.3-31.85,0-22.86-9.8-40.83-29.4-53.9-9.34-7-21-13.06-35-18.2-14-5.13-30.34-9.8-49-14-21-5.13-39.55-10.96-55.65-17.5-16.1-6.53-29.29-14-39.55-22.4-9.34-7.93-16.34-16.45-21-25.55-4.67-9.1-7-19.25-7-30.45,0-14.46,2.91-27.53,8.75-39.2,5.83-11.66,14-21.81,24.5-30.45,10.5-8.63,23.33-15.16,38.5-19.6,15.16-4.43,32.08-6.65,50.75-6.65,16.33,0,32.2,2.34,47.6,7,15.4,4.67,29.86,11.44,43.4,20.3,13.53,8.87,25.66,19.6,36.4,32.2l-11.2,12.6c-10.27-11.66-21.47-21.81-33.6-30.45-12.14-8.63-25.09-15.16-38.85-19.6-13.77-4.43-28.35-6.65-43.75-6.65-16.8,0-31.85,1.99-45.15,5.95-13.3,3.97-24.62,9.57-33.95,16.8-9.34,7.24-16.34,15.64-21,25.2-4.67,9.57-7,20.19-7,31.85,0,7.94,1.63,15.64,4.9,23.1,3.26,7.47,8.63,14.24,16.1,20.3,9.33,7.94,21.58,14.94,36.75,21,15.16,6.07,32.78,11.44,52.85,16.1,21,4.67,39.31,9.92,54.95,15.75,15.63,5.84,28.58,12.72,38.85,20.65,10.73,7.94,18.78,17.27,24.15,28,5.36,10.74,8.05,23.34,8.05,37.8,0,20.07-4.9,37.69-14.7,52.85-9.8,15.17-24.04,26.84-42.7,35-18.67,8.16-40.84,12.25-66.5,12.25Z"/>
      <path class="cls-2" d="M4088.88,1934.38c-25.2,0-48.89-4.44-71.05-13.3-22.17-8.87-40.72-21.7-55.65-38.5l7.7-14c9.8,10.26,20.65,19.13,32.55,26.6,11.9,7.46,25.08,13.3,39.55,17.5,14.46,4.2,29.86,6.3,46.2,6.3,26.6,0,51.45-7,74.55-21,23.1-14,41.76-33.95,56-59.85,14.23-25.9,21.35-56.82,21.35-92.75v-99.4l6.3-2.1c-6.07,25.2-16.8,47.49-32.2,66.85-15.4,19.37-33.84,34.65-55.3,45.85-21.47,11.2-44.8,16.8-70,16.8-34.07,0-64.52-8.05-91.35-24.15-26.84-16.1-47.95-38.26-63.35-66.5-15.4-28.23-23.1-60.55-23.1-96.95s7.93-69.65,23.8-98.35c15.86-28.7,36.98-51.21,63.35-67.55,26.36-16.33,55.65-24.5,87.85-24.5,14.93,0,29.51,2.1,43.75,6.3,14.23,4.2,27.65,10.04,40.25,17.5,12.6,7.47,24.03,16.45,34.3,26.95,10.26,10.5,18.78,22.05,25.55,34.65,6.76,12.6,11.55,26.14,14.35,40.6l-4.2-2.1,1.4-120.4h14v352.8c0,28.46-4.32,54.01-12.95,76.65-8.64,22.63-20.65,41.76-36.05,57.4-15.4,15.63-33.14,27.65-53.2,36.05-20.07,8.4-41.54,12.6-64.4,12.6ZM4088.18,1757.98c28.46,0,54.25-7.35,77.35-22.05,23.1-14.7,41.3-35.11,54.6-61.25,13.3-26.13,19.95-56.23,19.95-90.3s-6.65-63.46-19.95-89.6c-13.3-26.13-31.5-46.66-54.6-61.6-23.1-14.93-49.35-22.4-78.75-22.4-31.27,0-59.04,7.47-83.3,22.4-24.27,14.94-43.17,35.59-56.7,61.95-13.54,26.37-20.3,56.59-20.3,90.65s6.88,62.65,20.65,88.55c13.76,25.9,32.78,46.32,57.05,61.25,24.26,14.94,52.26,22.4,84,22.4Z"/>
      <path class="cls-2" d="M4510.98,1773.38c-34.07,0-64.52-8.05-91.35-24.15-26.84-16.1-47.95-38.26-63.35-66.5-15.4-28.23-23.1-60.55-23.1-96.95s7.93-69.65,23.8-98.35c15.86-28.7,36.98-51.21,63.35-67.55,26.36-16.33,55.65-24.5,87.85-24.5,19.6,0,38.26,3.04,56,9.1,17.73,6.07,33.6,14.7,47.6,25.9s25.78,24.5,35.35,39.9c9.56,15.4,15.98,32.44,19.25,51.1l-4.2-2.1,1.4-120.4h14v367.5h-15.4v-120.4l6.3-2.1c-4.2,18.67-11.09,35.94-20.65,51.8-9.57,15.87-21.35,29.64-35.35,41.3-14,11.67-29.52,20.65-46.55,26.95-17.04,6.3-35.35,9.45-54.95,9.45ZM4510.98,1757.98c28.46,0,54.25-7.35,77.35-22.05,23.1-14.7,41.3-35.11,54.6-61.25,13.3-26.13,19.95-56.23,19.95-90.3s-6.65-63.46-19.95-89.6c-13.3-26.13-31.5-46.66-54.6-61.6-23.1-14.93-49.35-22.4-78.75-22.4-31.27,0-59.04,7.47-83.3,22.4-24.27,14.94-43.17,35.59-56.7,61.95-13.54,26.37-20.3,56.59-20.3,90.65s6.76,62.65,20.3,88.55c13.53,25.9,32.43,46.32,56.7,61.25,24.26,14.94,52.5,22.4,84.7,22.4Z"/>
      <path class="cls-2" d="M4775.58,1766.38v-367.5h14l.7,88.9-4.2,1.4c3.26-15.4,9.91-30.21,19.95-44.45,10.03-14.23,23.56-26.01,40.6-35.35,17.03-9.33,37.21-14,60.55-14,7.93,0,15.28.47,22.05,1.4,6.76.94,12.95,2.34,18.55,4.2l-4.9,16.1c-7.47-2.33-14.59-3.96-21.35-4.9-6.77-.93-12.72-1.4-17.85-1.4-18.67,0-35.12,3.74-49.35,11.2-14.24,7.47-26.02,17.27-35.35,29.4-9.34,12.14-16.34,25.09-21,38.85-4.67,13.77-7,26.95-7,39.55v236.6h-15.4Z"/>
      <path class="cls-2" d="M5012.88,1302.28c-6.54,0-11.44-1.86-14.7-5.6-3.27-3.73-4.9-8.63-4.9-14.7,0-5.6,1.63-10.38,4.9-14.35,3.26-3.96,8.16-5.95,14.7-5.95,6.06,0,10.85,1.87,14.35,5.6,3.5,3.74,5.25,8.64,5.25,14.7s-1.64,10.97-4.9,14.7c-3.27,3.74-8.17,5.6-14.7,5.6ZM5005.18,1766.38v-367.5h15.4v367.5h-15.4Z"/>
    </g>
  </g>
</svg>